<svg width="24" height="24" viewBox="0 0 24 24" fill="none" xmlns="http://www.w3.org/2000/svg">
<path d="M2.83627 13.6829L2.17696 14.153L2.83627 13.6829ZM2.83627 10.3179L3.49558 10.7881L2.83627 10.3179ZM21.1638 13.6829L21.823 14.153L21.1638 13.6829ZM21.1638 10.3179L21.823 9.84782L21.1638 10.3179ZM22.1538 12.0004H23H22.1538ZM3.29063 3.21968C2.96018 2.92677 2.42443 2.92677 2.09398 3.21968C1.76354 3.51259 1.76354 3.98748 2.09398 4.28039L3.29063 3.21968ZM20.7084 20.7803C21.0389 21.0732 21.5747 21.0732 21.9051 20.7803C22.2355 20.4874 22.2355 20.0125 21.9051 19.7196L20.7084 20.7803ZM15.7676 18.6959C16.1897 18.5182 16.3694 18.0708 16.1689 17.6966C15.9684 17.3224 15.4636 17.1632 15.0416 17.3409L15.7676 18.6959ZM5.27003 9.04551C5.60375 8.75547 5.609 8.28062 5.28179 7.98481C4.95458 7.68907 4.41888 7.68442 4.08516 7.97446L5.27003 9.04551ZM11.2399 15.2131C11.6975 15.2971 12.1452 15.0362 12.2398 14.6305C12.3345 14.2249 12.0402 13.828 11.5825 13.7442L11.2399 15.2131ZM10.0109 12.3535C9.91821 11.9475 9.47169 11.685 9.01367 11.7672C8.55565 11.8494 8.25949 12.2452 8.35232 12.6512L10.0109 12.3535ZM12 18.0007C10.2858 18.0007 8.62207 17.3281 7.12514 16.3605C5.63405 15.3967 4.37742 14.1844 3.49558 13.2128L2.17696 14.153C3.10956 15.1806 4.47219 16.5023 6.12803 17.5726C7.77812 18.6391 9.78908 19.5008 12 19.5008V18.0007ZM12 6.00014C13.7142 6.00014 15.3779 6.67277 16.8749 7.64032C18.366 8.60411 19.6226 9.81639 20.5044 10.7881L21.823 9.84782C20.8905 8.8202 19.5278 7.49856 17.872 6.42826C16.2219 5.36171 14.2109 4.50007 12 4.50007V6.00014ZM3.49558 13.2128C2.78692 12.4319 2.69231 12.2793 2.69231 12.0004H1C1 12.9044 1.56546 13.4792 2.17696 14.153L3.49558 13.2128ZM2.17696 9.84782C1.56546 10.5217 1 11.0964 1 12.0004H2.69231C2.69231 11.7216 2.78692 11.5689 3.49558 10.7881L2.17696 9.84782ZM21.823 14.153C22.4345 13.4792 23 12.9044 23 12.0004H21.3077C21.3077 12.2793 21.2131 12.4319 20.5044 13.2128L21.823 14.153ZM20.5044 10.7881C21.2131 11.5689 21.3077 11.7216 21.3077 12.0004H23C23 11.0964 22.4345 10.5217 21.823 9.84782L20.5044 10.7881ZM12 10.2191C13.1258 10.2191 14.0287 11.0213 14.0287 12.0004H15.721C15.721 10.1835 14.0497 8.71902 12 8.71902V10.2191ZM15.0416 17.3409C14.0595 17.7543 13.0387 18.0007 12 18.0007V19.5008C13.3441 19.5008 14.6135 19.1818 15.7676 18.6959L15.0416 17.3409ZM3.49558 10.7881C3.97897 10.2555 4.57822 9.64681 5.27003 9.04551L4.08516 7.97446C3.33629 8.62541 2.69257 9.27967 2.17696 9.84782L3.49558 10.7881ZM7.00067 7.7217C8.52823 6.71155 10.2371 6.00014 12 6.00014V4.50007C9.72748 4.50007 7.66583 5.41031 5.98875 6.51932L7.00067 7.7217ZM2.09398 4.28039L5.89644 7.65089L7.09307 6.59019L3.29063 3.21968L2.09398 4.28039ZM16.9069 17.4107L20.7084 20.7803L21.9051 19.7196L18.1036 16.35L16.9069 17.4107ZM20.5044 13.2128C19.6477 14.1568 18.4364 15.3289 16.9993 16.2791L18.0112 17.4815C19.6038 16.4283 20.9163 15.1521 21.823 14.153L20.5044 13.2128ZM5.89644 7.65089L9.37565 10.7349L10.5723 9.67419L7.09307 6.59019L5.89644 7.65089ZM10.5682 10.7384C10.9355 10.4172 11.4401 10.2191 12 10.2191V8.71902C10.979 8.71902 10.0518 9.08264 9.37963 9.67066L10.5682 10.7384ZM9.37565 10.7349L13.4277 14.3267L14.6243 13.266L10.5723 9.67419L9.37565 10.7349ZM13.4277 14.3267L16.9069 17.4107L18.1036 16.35L14.6243 13.266L13.4277 14.3267ZM14.0287 12.0004C14.0287 12.493 13.8021 12.9385 13.4318 13.2624L14.6204 14.3302C15.2986 13.7371 15.721 12.9119 15.721 12.0004H14.0287ZM11.5825 13.7442C10.7899 13.5989 10.1692 13.0463 10.0109 12.3535L8.35232 12.6512C8.64627 13.938 9.78942 14.9473 11.2399 15.2131L11.5825 13.7442Z" fill="#121926"/>
</svg>
