<svg width="20" height="20" viewBox="0 0 20 20" fill="none" xmlns="http://www.w3.org/2000/svg">
<path d="M2.36354 11.4954L1.81411 11.9133L2.36354 11.4954ZM2.36354 8.50445L1.81411 8.08658L2.36354 8.50445ZM17.6364 11.4954L18.1858 11.9133L17.6364 11.4954ZM17.6364 8.50445L18.1858 8.08658L17.6364 8.50445ZM18.4615 9.99992H19.1666H18.4615ZM17.087 11.0775C16.3521 11.9412 15.3049 13.0187 14.0624 13.8754C12.8149 14.7354 11.4285 15.3333 9.99998 15.3333V16.6666C11.8424 16.6666 13.5182 15.9007 14.8933 14.9527C16.2732 14.0014 17.4087 12.8267 18.1858 11.9133L17.087 11.0775ZM9.99998 15.3333C8.57146 15.3333 7.18504 14.7354 5.93759 13.8754C4.69502 13.0187 3.64783 11.9412 2.91296 11.0775L1.81411 11.9133C2.59128 12.8267 3.72681 14.0014 5.10667 14.9527C6.48174 15.9007 8.15755 16.6666 9.99998 16.6666V15.3333ZM2.91296 8.92232C3.64783 8.05865 4.69502 6.98112 5.93759 6.12445C7.18504 5.26445 8.57146 4.66659 9.99998 4.66659V3.33325C8.15755 3.33325 6.48174 4.09912 5.10667 5.04712C3.72681 5.99845 2.59128 7.17318 1.81411 8.08658L2.91296 8.92232ZM9.99998 4.66659C11.4285 4.66659 12.8149 5.26445 14.0624 6.12445C15.3049 6.98112 16.3521 8.05865 17.087 8.92232L18.1858 8.08658C17.4087 7.17318 16.2732 5.99845 14.8933 5.04712C13.5182 4.09912 11.8424 3.33325 9.99998 3.33325V4.66659ZM2.91296 11.0775C2.32242 10.3835 2.24357 10.2478 2.24357 9.99992H0.833313C0.833313 10.8035 1.30453 11.3143 1.81411 11.9133L2.91296 11.0775ZM1.81411 8.08658C1.30453 8.68552 0.833313 9.19638 0.833313 9.99992H2.24357C2.24357 9.75205 2.32242 9.61638 2.91296 8.92232L1.81411 8.08658ZM18.1858 11.9133C18.6954 11.3143 19.1666 10.8035 19.1666 9.99992H17.7564C17.7564 10.2478 17.6776 10.3835 17.087 11.0775L18.1858 11.9133ZM17.087 8.92232C17.6776 9.61638 17.7564 9.75205 17.7564 9.99992H19.1666C19.1666 9.19638 18.6954 8.68552 18.1858 8.08658L17.087 8.92232ZM11.6906 9.99992C11.6906 10.8702 10.9382 11.5833 9.99998 11.5833V12.9166C11.7081 12.9166 13.1009 11.6149 13.1009 9.99992H11.6906ZM9.99998 11.5833C9.06181 11.5833 8.30936 10.8702 8.30936 9.99992H6.89911C6.89911 11.6149 8.29188 12.9166 9.99998 12.9166V11.5833ZM8.30936 9.99992C8.30936 9.12965 9.06181 8.41658 9.99998 8.41658V7.08325C8.29188 7.08325 6.89911 8.38492 6.89911 9.99992H8.30936ZM9.99998 8.41658C10.9382 8.41658 11.6906 9.12965 11.6906 9.99992H13.1009C13.1009 8.38492 11.7081 7.08325 9.99998 7.08325V8.41658Z" fill="#121926"/>
</svg>
